<?xml version="1.0" encoding="UTF-8"?>
<svg xmlns="http://www.w3.org/2000/svg" xmlns:xlink="http://www.w3.org/1999/xlink" width="20px" height="20px" viewBox="0 0 20 20" version="1.1">
<g id="surface1">
<path style=" stroke:none;fill-rule:nonzero;fill:rgb(0%,0%,0%);fill-opacity:1;" d="M 13.703125 1.667969 C 12.476562 1.65625 11.296875 2.132812 10.414062 2.988281 L 9.746094 3.65625 C 9.421875 3.980469 9.421875 4.511719 9.746094 4.835938 C 10.074219 5.160156 10.601562 5.160156 10.925781 4.835938 L 11.582031 4.179688 C 12.148438 3.628906 12.90625 3.328125 13.6875 3.332031 C 14.472656 3.339844 15.226562 3.65625 15.785156 4.21875 C 16.34375 4.78125 16.660156 5.542969 16.667969 6.339844 C 16.671875 7.132812 16.371094 7.898438 15.824219 8.46875 L 13.527344 10.78125 C 13.222656 11.085938 12.859375 11.324219 12.453125 11.476562 C 12.050781 11.628906 11.621094 11.691406 11.191406 11.660156 C 10.761719 11.628906 10.347656 11.503906 9.96875 11.296875 C 9.589844 11.089844 9.261719 10.800781 9.003906 10.453125 C 8.726562 10.082031 8.207031 10.007812 7.835938 10.28125 C 7.46875 10.554688 7.390625 11.078125 7.664062 11.445312 C 8.066406 11.988281 8.578125 12.433594 9.164062 12.757812 C 9.753906 13.082031 10.402344 13.273438 11.070312 13.320312 C 11.742188 13.371094 12.414062 13.273438 13.039062 13.035156 C 13.667969 12.800781 14.238281 12.429688 14.710938 11.953125 L 17.015625 9.636719 L 17.023438 9.625 C 17.875 8.738281 18.34375 7.554688 18.332031 6.324219 C 18.324219 5.09375 17.832031 3.917969 16.96875 3.042969 C 16.101562 2.171875 14.929688 1.675781 13.703125 1.667969 Z M 13.703125 1.667969 "/>
<path style=" stroke:none;fill-rule:nonzero;fill:rgb(0%,0%,0%);fill-opacity:1;" d="M 8.929688 6.679688 C 8.257812 6.628906 7.585938 6.726562 6.960938 6.964844 C 6.332031 7.199219 5.761719 7.570312 5.289062 8.046875 L 2.984375 10.363281 L 2.976562 10.375 C 2.125 11.261719 1.65625 12.445312 1.667969 13.675781 C 1.675781 14.90625 2.167969 16.082031 3.03125 16.957031 C 3.898438 17.828125 5.070312 18.324219 6.296875 18.332031 C 7.523438 18.34375 8.703125 17.867188 9.585938 17.011719 L 9.59375 17.003906 L 10.25 16.339844 C 10.574219 16.015625 10.574219 15.488281 10.246094 15.164062 C 9.921875 14.839844 9.394531 14.839844 9.066406 15.167969 L 8.417969 15.824219 C 7.851562 16.371094 7.09375 16.671875 6.3125 16.667969 C 5.527344 16.660156 4.773438 16.34375 4.214844 15.78125 C 3.65625 15.21875 3.339844 14.457031 3.332031 13.660156 C 3.328125 12.867188 3.628906 12.101562 4.175781 11.53125 L 6.472656 9.21875 C 6.777344 8.914062 7.140625 8.675781 7.546875 8.523438 C 7.949219 8.371094 8.378906 8.308594 8.808594 8.339844 C 9.238281 8.371094 9.652344 8.496094 10.03125 8.703125 C 10.410156 8.910156 10.738281 9.199219 10.996094 9.546875 C 11.273438 9.917969 11.792969 9.992188 12.164062 9.71875 C 12.53125 9.445312 12.609375 8.921875 12.335938 8.554688 C 11.933594 8.011719 11.421875 7.566406 10.835938 7.242188 C 10.246094 6.917969 9.597656 6.726562 8.929688 6.679688 Z M 8.929688 6.679688 "/>
</g>
</svg>
